<svg width="31" height="31" viewBox="0 0 31 31" fill="none" xmlns="http://www.w3.org/2000/svg">
<path d="M14.8543 28.0937C7.55641 28.0937 1.61475 22.152 1.61475 14.8541C1.61475 7.55617 7.55641 1.6145 14.8543 1.6145C22.1522 1.6145 28.0939 7.55617 28.0939 14.8541C28.0939 22.152 22.1522 28.0937 14.8543 28.0937ZM14.8543 3.552C8.61558 3.552 3.55225 8.62825 3.55225 14.8541C3.55225 21.0799 8.61558 26.1562 14.8543 26.1562C21.0931 26.1562 26.1564 21.0799 26.1564 14.8541C26.1564 8.62825 21.0931 3.552 14.8543 3.552Z" fill="#292D32"/>
<path d="M28.4165 29.3855C28.1711 29.3855 27.9257 29.2951 27.7319 29.1014L25.1486 26.518C24.774 26.1434 24.774 25.5234 25.1486 25.1489C25.5232 24.7743 26.1432 24.7743 26.5178 25.1489L29.1011 27.7322C29.4757 28.1068 29.4757 28.7268 29.1011 29.1014C28.9074 29.2951 28.6619 29.3855 28.4165 29.3855Z" fill="#292D32"/>
</svg>
