<svg width="24" height="24" viewBox="0 0 24 24" fill="none" xmlns="http://www.w3.org/2000/svg">
<path d="M16.1401 2.96L7.11012 5.96C1.04012 7.99 1.04012 11.3 7.11012 13.32L9.79012 14.21L10.6801 16.89C12.7001 22.96 16.0201 22.96 18.0401 16.89L21.0501 7.87C22.3901 3.82 20.1901 1.61 16.1401 2.96ZM16.4601 8.34L12.6601 12.16C12.5101 12.31 12.3201 12.38 12.1301 12.38C11.9401 12.38 11.7501 12.31 11.6001 12.16C11.3101 11.87 11.3101 11.39 11.6001 11.1L15.4001 7.28C15.6901 6.99 16.1701 6.99 16.4601 7.28C16.7501 7.57 16.7501 8.05 16.4601 8.34Z" fill="#4267cf"/>
</svg>
