<svg width="24" height="24" viewBox="0 0 24 24" fill="none" xmlns="http://www.w3.org/2000/svg">
<path d="M21.9798 11.41C21.6398 5.61001 16.3698 1.14002 10.2998 2.14002C6.1198 2.83002 2.7698 6.22 2.1198 10.4C1.7398 12.82 2.23983 15.11 3.32983 17L2.43981 20.31C2.23981 21.06 2.92979 21.74 3.66979 21.53L6.9298 20.63C8.4098 21.5 10.1398 22 11.9898 22C17.6298 22 22.3098 17.03 21.9798 11.41ZM16.8798 15.72C16.7898 15.9 16.6798 16.07 16.5398 16.23C16.2898 16.5 16.0198 16.7 15.7198 16.82C15.4198 16.95 15.0898 17.01 14.7398 17.01C14.2298 17.01 13.6798 16.89 13.1098 16.64C12.5298 16.39 11.9598 16.06 11.3898 15.65C10.8098 15.23 10.2698 14.76 9.74981 14.25C9.22981 13.73 8.76978 13.18 8.34978 12.61C7.93979 12.04 7.6098 11.47 7.3698 10.9C7.1298 10.33 7.00982 9.78002 7.00982 9.26002C7.00982 8.92002 7.06981 8.59002 7.18981 8.29002C7.30981 7.98002 7.49983 7.70002 7.76983 7.45002C8.08983 7.13002 8.43981 6.98002 8.80981 6.98002C8.94981 6.98002 9.08978 7.01002 9.21978 7.07002C9.34978 7.13002 9.46981 7.22001 9.55981 7.35001L10.7198 8.99C10.8098 9.12 10.8798 9.23 10.9198 9.34C10.9698 9.45 10.9898 9.55 10.9898 9.65C10.9898 9.77 10.9498 9.89002 10.8798 10.01C10.8098 10.13 10.7198 10.25 10.5998 10.37L10.2198 10.77C10.1598 10.83 10.1398 10.89 10.1398 10.97C10.1398 11.01 10.1498 11.05 10.1598 11.09C10.1798 11.13 10.1898 11.16 10.1998 11.19C10.2898 11.36 10.4498 11.57 10.6698 11.83C10.8998 12.09 11.1398 12.36 11.3998 12.62C11.6698 12.89 11.9298 13.13 12.1998 13.36C12.4598 13.58 12.6798 13.73 12.8498 13.82C12.8798 13.83 12.9098 13.85 12.9398 13.86C12.9798 13.88 13.0198 13.88 13.0698 13.88C13.1598 13.88 13.2198 13.85 13.2798 13.79L13.6598 13.41C13.7898 13.28 13.9098 13.19 14.0198 13.13C14.1398 13.06 14.2498 13.02 14.3798 13.02C14.4798 13.02 14.5798 13.04 14.6898 13.09C14.7998 13.14 14.9198 13.2 15.0398 13.29L16.6998 14.47C16.8298 14.56 16.9198 14.67 16.9798 14.79C17.0298 14.92 17.0598 15.04 17.0598 15.18C16.9998 15.35 16.9598 15.54 16.8798 15.72Z" fill="#4267cf"/>
</svg>
